<svg width="108" height="68" viewBox="0 0 108 68" fill="none" xmlns="http://www.w3.org/2000/svg">
<circle cx="38.4033" cy="56.2309" r="28.0543" transform="rotate(-29.4954 38.4033 56.2309)" fill="#FFE05B" fill-opacity="0.99"/>
<rect x="54.2646" y="14.6252" width="56.1086" height="56.1086" rx="11.2217" transform="rotate(-29.4954 54.2646 14.6252)" fill="#BCE4FE"/>
<path fill-rule="evenodd" clip-rule="evenodd" d="M32.8408 46.4181C31.7036 47.0611 30.8364 48.0927 30.3984 49.3236C29.9605 50.5544 29.9811 51.9019 30.4565 53.1188C29.1996 53.4974 28.1225 54.3185 27.4245 55.4302C26.7266 56.5419 26.4551 57.8689 26.6603 59.1654C26.8655 60.4619 27.5335 61.6401 28.5407 62.4819C29.5479 63.3237 30.826 63.7721 32.1383 63.744C32.2334 65.0716 32.8129 66.3181 33.7668 67.2465C34.7207 68.1749 35.9824 68.7204 37.3122 68.7795C38.642 68.8385 39.9471 68.4069 40.9795 67.5667C42.0119 66.7265 42.6996 65.5362 42.912 64.2222C44.1472 64.7151 45.5204 64.7375 46.771 64.285C48.0216 63.8325 49.0626 62.9367 49.6965 61.7675C50.3303 60.5983 50.5129 59.2371 50.2095 57.9422C49.9062 56.6473 49.138 55.5088 48.0509 54.7428C48.6964 53.7205 48.982 52.512 48.8625 51.3089C48.743 50.1058 48.2251 48.9771 47.3911 48.1018C46.5571 47.2265 45.4547 46.6548 44.2588 46.4774C43.0628 46.3 41.8419 46.527 40.7897 47.1224C40.4318 47.3249 40.1065 47.5593 39.8138 47.8257C39.0156 46.7911 37.8709 46.0791 36.59 45.8206C35.3091 45.562 33.9779 45.7741 32.8408 46.4181Z" fill="#FF9A6C"/>
<path d="M40.4594 59.8864C42.4687 58.7498 42.9596 56.9803 41.823 54.971C40.6864 52.9617 38.9168 52.4708 36.9076 53.6074C34.8983 54.744 34.4074 56.5135 35.544 58.5228C36.6806 60.5321 38.4501 61.023 40.4594 59.8864Z" fill="#FFFCF4"/>
<path fill-rule="evenodd" clip-rule="evenodd" d="M80.7629 22.9557C81.2097 21.3443 82.2175 19.9457 83.6046 19.0118C84.9916 18.078 86.6667 17.6704 88.3277 17.8627C89.0617 16.2608 90.3716 14.9938 91.9969 14.3135C93.6223 13.6332 95.4441 13.5893 97.1003 14.1907C98.7565 14.792 100.126 15.9945 100.936 17.5592C101.746 19.1238 101.938 20.9361 101.473 22.6357L98.9735 31.647C98.7248 32.543 98.1305 33.3036 97.3211 33.7614C96.5117 34.2192 95.5537 34.3369 94.6576 34.0884L85.6468 31.5896C83.8545 31.0923 82.3331 29.9034 81.4173 28.2845C80.5015 26.6655 80.2658 24.748 80.7629 22.9557Z" fill="#4DB2F3"/>
</svg>
