<svg width="46" height="46" viewBox="0 0 46 46" fill="none" xmlns="http://www.w3.org/2000/svg">
<g filter="url(#filter0_f_726_348)">
<circle cx="22.6208" cy="22.6208" r="5.82298" transform="rotate(-7.85836 22.6208 22.6208)" fill="#FFE885"/>
</g>
<path d="M32.1623 21.6579C32.1835 21.9198 32.1226 22.1817 31.988 22.4073C31.8535 22.6329 31.652 22.811 31.4115 22.9169C31.4115 22.9169 28.2518 23.869 26.8724 25.4664C25.4933 27.0634 25.083 30.0773 25.0102 30.3284C24.9373 30.5795 24.7893 30.8023 24.5861 30.9669C24.3829 31.1314 24.1342 31.2299 23.8734 31.2489C23.6127 31.268 23.3523 31.2068 23.1273 31.0736C22.9023 30.9403 22.7235 30.7414 22.6149 30.5036C22.6149 30.5036 21.467 27.3579 19.8699 25.9785C18.2728 24.5991 15.2034 24.1022 15.2034 24.1022C14.9522 24.0294 14.7294 23.8814 14.5649 23.6782C14.4003 23.475 14.3019 23.2263 14.2828 22.9655C14.2638 22.7047 14.325 22.4444 14.4582 22.2194C14.5914 21.9944 14.7903 21.8156 15.0282 21.7069C15.0282 21.7069 17.9783 20.5731 19.3578 18.9759C20.7372 17.3788 21.4295 14.2954 21.4295 14.2954C21.5024 14.0443 21.6504 13.8215 21.8536 13.6569C22.0568 13.4924 22.3055 13.394 22.5662 13.3749C22.827 13.3558 23.0874 13.417 23.3124 13.5502C23.5374 13.6835 23.7162 13.8824 23.8248 14.1202C23.8248 14.1202 24.763 17.0845 26.3603 18.4638C27.9573 19.8429 31.2363 20.5216 31.2363 20.5216C31.4896 20.5913 31.7149 20.7382 31.8808 20.9418C32.0468 21.1455 32.1451 21.3958 32.1623 21.6579Z" fill="#FFE05B" fill-opacity="0.99"/>
<defs>
<filter id="filter0_f_726_348" x="5.72205e-05" y="5.72205e-05" width="45.2416" height="45.2416" filterUnits="userSpaceOnUse" color-interpolation-filters="sRGB">
<feFlood flood-opacity="0" result="BackgroundImageFix"/>
<feBlend mode="normal" in="SourceGraphic" in2="BackgroundImageFix" result="shape"/>
<feGaussianBlur stdDeviation="8.39853" result="effect1_foregroundBlur_726_348"/>
</filter>
</defs>
</svg>
