<svg width="128" height="165" viewBox="0 0 128 165" fill="none" xmlns="http://www.w3.org/2000/svg">
<path d="M0.791372 26.176C0.769602 20.3762 5.45364 15.6569 11.2535 15.6351L116.269 15.2409C122.068 15.2191 126.788 19.9032 126.809 25.703L127.248 142.62C127.292 154.219 117.924 163.658 106.324 163.702L22.3121 164.017C10.7124 164.061 1.27378 154.692 1.23024 143.093L0.791372 26.176Z" fill="#E3E3E3"/>
<circle cx="18.8324" cy="89.8182" r="6.30095" transform="rotate(-0.215069 18.8324 89.8182)" fill="white"/>
<path d="M9.81099 4.43885C9.80373 2.50558 11.3651 0.932463 13.2984 0.925206L111.312 0.557293C113.246 0.550036 114.819 2.11138 114.826 4.04465L114.868 15.2463L9.85304 15.6405L9.81099 4.43885Z" fill="#E3E3E3"/>
<path d="M80.583 0.672568L103.086 0.588098L103.141 15.2152L80.6379 15.2997L80.583 0.672568Z" fill="#ACACAC"/>
<path d="M49.0781 0.790763L13.198 0.925445C11.2647 0.932702 9.70336 2.50581 9.71062 4.43909L9.75238 15.5657L49.133 15.4179L49.0781 0.790763Z" fill="#FFFCF4"/>
<rect x="12.0586" y="30.1845" width="12.3769" height="47.2571" rx="6.18843" transform="rotate(-0.215069 12.0586 30.1845)" fill="white"/>
<path fill-rule="evenodd" clip-rule="evenodd" d="M61.4507 76.5151L56.889 76.5517C56.6012 76.1773 56.4231 75.7301 56.3746 75.2603C56.329 74.7948 56.4411 74.47 56.6196 74.2702C56.7837 74.0851 57.1908 73.798 58.1825 73.79C59.0868 73.7827 60.0216 74.3939 60.82 75.4793C61.0721 75.823 61.2805 76.178 61.4507 76.5151ZM53.6563 75.5223C53.6932 75.8798 53.7657 76.2311 53.874 76.5759L52.7932 76.5846C52.3106 76.5885 51.8494 76.7839 51.5109 77.1279C51.1724 77.4718 50.9844 77.9362 50.9883 78.4188L51.0012 80.0236C51.005 80.5062 51.2004 80.9675 51.5444 81.3059C51.8884 81.6444 52.3527 81.8324 52.8353 81.8286L73.9494 81.6591C74.432 81.6552 74.8933 81.4598 75.2318 81.1158C75.5703 80.7719 75.7582 80.3075 75.7544 79.8249L75.7415 78.2201C75.7376 77.7375 75.5422 77.2763 75.1982 76.9378C74.8543 76.5993 74.3899 76.4113 73.9073 76.4151L72.8265 76.4238C72.9305 76.0773 72.9974 75.7249 73.0273 75.3668C73.1066 74.3617 72.879 73.2171 72.0566 72.3175C71.2214 71.409 69.9713 70.9677 68.452 70.9799C66.2685 70.9974 64.6371 72.4517 63.6367 73.8645C63.5308 74.0139 63.4295 74.1664 63.3328 74.3219C63.2331 74.1679 63.1287 74.0171 63.0198 73.8695C62.0005 72.4692 60.3441 71.0431 58.1624 71.0607C56.6413 71.0729 55.4003 71.5341 54.5798 72.4596C53.7701 73.3705 53.5627 74.5186 53.6582 75.5241L53.6563 75.5223ZM65.2499 76.4846L69.8115 76.448C70.0934 76.069 70.2643 75.619 70.3051 75.1485C70.3432 74.6823 70.226 74.3593 70.0443 74.1625C69.8772 73.98 69.4656 73.6995 68.4739 73.7074C67.5696 73.7147 66.6448 74.3408 65.8638 75.4388C65.6173 75.7866 65.4146 76.1448 65.2499 76.4846ZM52.8536 84.103L62.2734 84.0274L62.3659 95.5488L54.6855 95.6105C54.2029 95.6143 53.7386 95.4263 53.3946 95.0878C53.0507 94.7494 52.8552 94.2881 52.8514 93.8055L52.7735 84.1036L52.8536 84.103ZM72.3206 95.4689L64.6403 95.5306L64.5478 84.0091L74.0477 83.9329L74.1256 93.6348C74.1295 94.1173 73.9415 94.5817 73.603 94.9257C73.2645 95.2696 72.8032 95.4651 72.3206 95.4689Z" fill="#ACACAC"/>
</svg>
